<svg xmlns="http://www.w3.org/2000/svg" width="164" height="164"><g style="display:inline;opacity:1"><circle cx="82" cy="82" r="82" style="fill:#0000a0;fill-opacity:1;stroke:none;stroke-width:1.33565;stroke-linecap:round;stroke-linejoin:round;stroke-miterlimit:3;paint-order:markers stroke fill"/><path d="M159.812 74.22q.288 2.885-1.052 4.567-1.362 1.663-4.307 1.957l-7.145.712q-1.293.13-1.42-1.144t1.166-1.403l7.125-.71q1.89-.19 2.76-1.14.849-.97.684-2.62-.336-3.364-4.117-2.987l-7.124.71q-1.294.13-1.421-1.144-.125-1.254 1.168-1.383l7.145-.713q2.945-.293 4.607 1.048 1.641 1.344 1.931 4.25zm-2.045-11.988q.373 1.14-.806 1.525l-11.311 3.696q-.59.193-.987.007-.423-.199-.578-.674-.143-.437-.04-.702.078-.278.358-.706l6.585-9.663-8.346 2.727q-1.16.378-1.532-.762-.367-1.122.793-1.5l11.407-3.728q.532-.174.923-.007.391.167.54.623.143.438.059.76-.09.303-.371.731l-6.604 9.67 8.365-2.734q1.179-.385 1.545.737zm-8.456-19.958q.65 1.102-.486 1.773l-9.302 5.488 1.982 3.359q.559.947-.371 1.496-.913.539-1.472-.409l-5.265-8.922q-.559-.948.354-1.486.93-.55 1.49.398l1.981 3.36 9.302-5.489q1.137-.67 1.787.432zm-7.12-9.979q.906 1.014-.108 1.92l-8.483 7.586q-1.014.907-1.92-.107l-4.76-5.323q-.693-.775.052-1.441.776-.694 1.469.082l4.026 4.502 2.892-2.586-3.733-4.175q-.693-.775.067-1.455t1.454.095l3.733 4.175 3.056-2.733-4.026-4.502q-.693-.776.067-1.456.76-.68 1.454.096zm-9.68-10.078q1.018.774.22 1.825l-7.044 9.268q-.786 1.035-1.821.248l-3.838-2.916q-1.847-1.404-2.172-3.058-.338-1.639.872-3.23.956-1.259 2.239-1.59 1.27-.317 2.714.329-.619-.872-.406-2.243l.488-3.12q.116-.716.618-1.013.486-.309 1.14.187.429.327.567.708.125.397.042.936l-.643 4.184q-.125.76.14 1.237.237.482.842.941l1.513 1.15 2.71-3.567q.8-1.05 1.818-.276zm-5.679 5.356-2.484-1.888q-2.23-1.694-3.609.12-1.367 1.8.862 3.495l2.484 1.887zm-5.457-13.118q.502.248.632.681.13.434-.107.874-.18.335-.524.467-.336.16-.733-.031l-.547-.25q-1.624-.738-2.497.881L113.329 25q-.616 1.145-1.743.538-1.127-.608-.51-1.752l4.26-7.905q.892-1.655 2.265-2.097 1.374-.44 3.156.383zm-9.74-4.672q1.277.467.81 1.744l-3.902 10.69q-.467 1.278-1.744.811l-6.707-2.448q-.977-.357-.634-1.296.356-.977 1.333-.62l5.674 2.07 1.33-3.644-5.26-1.92q-.977-.357-.627-1.315t1.327-.602l5.26 1.92 1.406-3.85-5.673-2.072q-.977-.357-.627-1.315t1.326-.601zM94.642 4.83q1.322.218 2.537.722 1.194.502 2.024 1.247.405.37.432.82.027.451-.193.8-.243.366-.62.445-.402.096-.826-.278-.784-.656-1.712-1.053-.928-.396-1.993-.572-1.56-.257-2.354.139-.799.415-.935 1.244-.114.69.334 1.17.428.476 1.609.934l2.096.812q3.58 1.402 3.081 4.421-.215 1.303-1.065 2.155-.85.853-2.162 1.184-1.311.331-2.91.067-1.183-.195-2.2-.667-1.017-.472-1.771-1.184-.35-.341-.36-.769-.013-.407.223-.733.233-.306.65-.38.395-.056.859.325.662.535 1.382.836.72.301 1.589.445 1.362.224 2.226-.221.864-.445 1.017-1.373.117-.71-.285-1.222-.405-.493-1.51-.919l-2.077-.808q-1.885-.737-2.686-1.781-.82-1.048-.576-2.528.205-1.243 1.033-2.08.827-.836 2.158-1.164 1.308-.311 2.985-.034Zm-10.928-.97q1.28.028 1.25 1.348l-.258 11.777q-.029 1.32-1.308 1.291-1.28-.028-1.251-1.347l.258-11.778q.03-1.32 1.31-1.291zm-7.26.034q1.19-.157 1.352 1.072l1.56 11.797q.08.615-.175.972-.272.379-.768.444-.456.06-.698-.09-.259-.126-.628-.481l-8.292-8.244 1.15 8.704q.16 1.21-1.03 1.367-1.17.154-1.33-1.055L66.025 6.482q-.073-.555.162-.909.236-.354.712-.416.456-.06.757.081.281.144.651.499l8.295 8.264-1.154-8.724q-.162-1.23 1.008-1.384ZM54.626 8.741q2.202-.792 4.025-.512 1.803.286 3.142 1.526t2.09 3.33q.758 2.107.497 3.923-.254 1.834-1.48 3.21-1.22 1.395-3.347 2.16-1.053.38-2.202.495-1.16.141-2.318-.122-.502-.096-.708-.49-.217-.368-.158-.793.06-.425.382-.711.329-.267.875-.166.865.156 1.666.08.802-.075 1.705-.4 2.108-.758 2.76-2.374.632-1.61-.194-3.906-.833-2.314-2.376-3.12-1.544-.804-3.727-.019-.62.223-1.227.548-.618.35-1.183.787l1.11 3.086 2.07-.745q.979-.352 1.304.552.318.884-.66 1.236l-3.106 1.117q-.979.352-1.33-.626l-1.646-4.573q-.311-.866.278-1.354.72-.6 1.718-1.192 1.005-.574 2.04-.947zM44.478 13.55q1.166-.7 1.866.466l5.859 9.756q.7 1.166-.466 1.866l-6.121 3.676q-.892.535-1.407-.322-.535-.892.356-1.427l5.179-3.11-1.998-3.326-4.8 2.883q-.892.535-1.417-.34-.525-.874.366-1.409l4.801-2.883-2.11-3.515-5.179 3.11q-.891.535-1.416-.34-.526-.874.366-1.41zm-12.184 7.947q.88-.817 1.723.092l8.097 8.72q.422.455.42.894-.004.467-.37.807-.337.313-.62.33-.286.047-.792-.029l-11.533-1.928 5.974 6.435q.83.894-.05 1.71-.865.803-1.695-.091l-8.164-8.794q-.381-.41-.394-.836-.012-.425.34-.751.336-.313.664-.372.313-.045.82.03l11.546 1.943-5.987-6.449q-.844-.908.02-1.711zM14.658 42.24q.857-1.422 2.007-2.13 1.15-.707 2.467-.684 1.307.04 2.643.845 1.302.784 1.959 1.904.646 1.136.626 2.409-.012 1.3-.745 2.516-1.074 1.782-2.824 2.128-1.76.364-3.713-.813-.634-.382-.138-1.204l3.117-5.173q-2.389-1.113-3.792 1.217-.269.445-.496 1.055-.22.638-.246 1.3-.012.6-.3.847-.272.256-.618.211-.357-.028-.637-.337-.274-.282-.277-.82-.015-.827.271-1.729.293-.874.696-1.542zm7.45 4.068q.567-.942.335-1.875-.231-.934-1.153-1.652l-2.539 4.214q1.087.56 1.944.377.865-.156 1.412-1.064zM11.361 48.68q.295-.613.855-.81.552-.178 1.147.108.577.277.764.811.196.56-.098 1.174-.303.63-.847.791-.533.187-1.11-.09-.595-.286-.8-.828-.214-.525.089-1.156zm-3.261 7.86q.339-.961 1.428-1.044l12.789-1.026q.823-.049 1.144.425.333.499.107 1.14-.193.547-.531.725-.326.203-.865.225l-10.841.737 8 7.38q.38.368.507.73.146.37-.034.879-.213.604-.772.746-.566.16-1.15-.406l-9.318-8.82q-.399-.373-.53-.78-.12-.382.066-.91Zm-2.275 8.224q.15-.663.652-.98.498-.298 1.142-.152.624.142.926.62.317.503.167 1.166-.155.682-.649.96-.478.302-1.102.16-.644-.145-.965-.628-.326-.464-.171-1.146Z" aria-label="UNTERJESINGEN e.V." style="font-weight:700;font-size:20px;font-family:Nunito;-inkscape-font-specification:&quot;Nunito Bold&quot;;fill:#fff;stroke-width:1.33929;stroke-linecap:round;stroke-linejoin:round;stroke-miterlimit:3;paint-order:markers stroke fill" transform="rotate(173.721 82 82)"/><path d="M20.33 66.7q-.373 1.265-1.677.88l-11.07-3.262q-1.304-.385-.92-1.69l1.974-6.694q.294-.998 1.253-.715.998.294.704 1.291l-1.635 5.545 3.818 1.125 1.516-5.141q.294-.998 1.253-.715.997.294.703 1.291l-1.515 5.142 4.642 1.368q1.305.385.954 1.574zm2.9-9.274q-.553 1.176-1.747.614L11.04 53.128q-1.177-.553-.632-1.712.545-1.158 1.721-.605l9.664 4.547 2.47-5.249q.476-1.013 1.453-.553.996.468.519 1.481zM30.469 45q-1.691 2.356-3.807 2.733-2.122.349-4.527-1.377l-5.833-4.186q-1.056-.757-.31-1.797t1.802-.282l5.818 4.174q1.543 1.107 2.825.968 1.276-.167 2.244-1.516 1.97-2.746-1.117-4.961l-5.817-4.174q-1.056-.758-.31-1.798.734-1.024 1.79-.266l5.834 4.186q2.405 1.726 2.766 3.83.344 2.094-1.358 4.466zm9.169-10.232q-1.719 1.589-3.505 2.042-1.773.44-3.49-.179-1.716-.619-3.223-2.249-1.52-1.645-1.989-3.418-.482-1.788.11-3.534.579-1.76 2.238-3.295.822-.76 1.835-1.315 1.013-.583 2.182-.792.5-.108.842.175.344.254.455.669.112.414-.073.803-.2.375-.742.495-.856.193-1.565.576-.708.382-1.413 1.034-1.645 1.52-1.614 3.263.045 1.728 1.702 3.52 1.67 1.806 3.405 1.945 1.736.138 3.44-1.437.484-.448.915-.983.433-.563.783-1.186l-2.227-2.409-1.615 1.494q-.764.706-1.416.001-.638-.69.126-1.396l2.423-2.24q.763-.706 1.47.057l3.299 3.569q.624.675.272 1.355-.429.832-1.116 1.768-.702.92-1.51 1.667zm9.223-6.863q-1.142.701-2.39 1.116-1.23.404-2.345.385-.55-.015-.865-.337-.315-.323-.378-.73-.056-.435.177-.743.24-.335.806-.33 1.022-.019 1.983-.327.96-.309 1.88-.875 1.347-.827 1.688-1.647.33-.837-.11-1.553-.366-.596-1.018-.664-.636-.08-1.828.348l-2.115.76q-3.623 1.288-5.225-1.32-.691-1.124-.608-2.325.083-1.202.857-2.311.774-1.11 2.154-1.958 1.022-.628 2.1-.938 1.077-.31 2.113-.266.487.029.776.345.277.299.312.7.025.384-.243.712-.26.302-.86.318-.85.03-1.593.275-.741.244-1.491.705-1.176.722-1.537 1.625-.36.903.132 1.703.377.614 1.016.737.629.107 1.743-.296l2.098-.75q1.907-.679 3.196-.414 1.306.253 2.091 1.531.66 1.074.583 2.248-.076 1.174-.867 2.293-.784 1.093-2.232 1.983zm7.129-3.929q-1.197.455-1.666-.779l-4.135-10.88q-.462-1.216.753-1.678l4.506-1.712q2.168-.824 3.758-.188 1.59.637 2.33 2.581.738 1.945-.02 3.495-.766 1.532-2.935 2.357l-3.328 1.264 1.464 3.852q.47 1.234-.727 1.688zm-1.454-7.428 2.954-1.122q2.58-.981 1.727-3.224-.846-2.225-3.426-1.245l-2.953 1.123zm16.938 2.892q-2.011.339-3.68-.293-1.648-.635-2.745-2.093-1.1-1.478-1.466-3.647-.369-2.19.19-3.926.56-1.737 1.912-2.858 1.35-1.14 3.381-1.482 2.032-.342 3.68.293 1.645.616 2.742 2.074 1.098 1.457 1.463 3.627.369 2.19-.187 3.946-.56 1.737-1.909 2.877-1.35 1.14-3.38 1.482zm-.365-2.17q1.913-.322 2.756-1.823.842-1.5.447-3.847-.399-2.367-1.683-3.49-1.265-1.125-3.197-.8-1.913.323-2.76 1.804-.845 1.481-.446 3.848.395 2.347 1.682 3.489 1.288 1.142 3.201.82zm9.065 1.148q-1.279-.044-1.233-1.364l.405-11.632q.046-1.3 1.345-1.254l4.817.167q2.319.081 3.539 1.244 1.22 1.144 1.151 3.142-.055 1.58-.91 2.59-.856.991-2.407 1.297 1.008.356 1.625 1.598l1.402 2.83q.318.652.08 1.184-.22.533-1.04.504-.539-.019-.87-.25-.332-.252-.575-.74l-1.89-3.789q-.336-.692-.828-.93-.471-.256-1.23-.282l-1.9-.067-.156 4.478q-.046 1.319-1.325 1.274zm1.548-7.65 3.118.108q2.798.098 2.877-2.18.08-2.26-2.72-2.357L81.88 6.23Zm13.569 9.16q-1.252-.269-.976-1.56l2.26-10.56-3.814-.816q-1.076-.23-.85-1.287.222-1.036 1.297-.806l10.131 2.167q1.076.23.854 1.267-.226 1.056-1.301.826l-3.814-.816-2.26 10.561q-.276 1.29-1.527 1.023zm11.597 3.675q-.938-.4-.95-1.493l-.21-12.828q.003-.825.496-1.114.52-.301 1.145-.034.534.227.69.576.182.338.17.877l.044 10.866 7.876-7.514q.39-.356.76-.46.378-.12.875.09.589.252.695.819.125.575-.478 1.122l-9.396 8.737q-.398.374-.813.48-.388.095-.904-.124zm7.047 3.264q-1.142-.737-.405-1.88l6.172-9.561q.737-1.143 1.88-.405l5.999 3.872q.874.564.331 1.404-.564.874-1.438.31l-5.074-3.276-2.104 3.26L124 23.628q.873.564.32 1.421-.553.857-1.427.293l-4.705-3.037-2.223 3.445 5.074 3.276q.874.564.321 1.42-.553.857-1.427.293zm9.114 6.542q-.924-.886-.01-1.839l8.062-8.396q.9-.938 1.838-.038l3.477 3.338q1.673 1.607 1.807 3.287.147 1.666-1.238 3.11-1.094 1.139-2.406 1.321-1.298.168-2.658-.639.514.938.145 2.275l-.843 3.044q-.198.697-.73.934-.519.251-1.11-.316-.39-.374-.483-.769-.08-.408.066-.934l1.119-4.083q.211-.74.003-1.245-.18-.505-.728-1.032l-1.371-1.315-3.103 3.231q-.914.953-1.837.066zm6.255-4.668 2.251 2.16q2.02 1.94 3.599.295 1.565-1.63-.455-3.57l-2.25-2.16zm2.79 13.887q-.788-1.108.32-1.896l9.276-6.593q1.108-.788 1.896.32l4.137 5.82q.602.848-.213 1.427-.847.602-1.45-.245l-3.5-4.923-3.162 2.248 3.245 4.564q.602.848-.23 1.439-.83.59-1.433-.257l-3.245-4.565-3.341 2.376 3.499 4.923q.602.848-.229 1.438-.831.591-1.434-.256zm6.045 9.738q-.597-1.132.57-1.748l10.418-5.5q1.167-.615 1.764.517.598 1.132-.57 1.748l-10.417 5.499q-1.167.616-1.765-.516zm2.088 3.907q-.402-1.13.766-1.546l11.213-3.985q.584-.208.986-.032.428.187.595.658.154.434.058.701-.07.28-.34.716l-6.334 9.829 8.273-2.94q1.15-.41 1.552.721.395 1.112-.755 1.52l-11.307 4.02q-.527.187-.922.03-.396-.156-.557-.608-.154-.434-.078-.758.083-.305.353-.74l6.352-9.836-8.292 2.947q-1.168.415-1.563-.697z" aria-label="FLUGSPORTVEREIN" style="font-weight:700;font-size:20px;font-family:Nunito;-inkscape-font-specification:&quot;Nunito Bold&quot;;fill:#fff;stroke-width:1.33929;stroke-linecap:round;stroke-linejoin:round;stroke-miterlimit:3;paint-order:markers stroke fill"/><path d="m32.215 53.324 37.977-1.036s.598-12.39 4.542-13.85c0 0 .5-1.782 1.266-2.532.734.688 1.288 2.484 1.288 2.484 3.535 1.347 4.27 13.851 4.27 13.851l37.88 1.103c2 2.719 2.671 11.515 2.671 11.515l-.406-.515-39.047 3.125c-.687.453-1.406 1.375-1.531 1.953l-3.544 22.616c-.022.265.31.84.31.84l12.75 1.9c.971 3.293-.575 6.585-.575 6.585l-28.395-.088s-1.613-3.05-.619-6.54l12.706-1.923s.409-.564.376-.818l-3.572-22.572c-.14-.531-1.046-1.703-1.578-2L29.97 64.359l-.346.456s.28-8.053 2.592-11.49z" style="opacity:1;fill:#fff;fill-opacity:1;stroke:none;stroke-width:.4;stroke-linecap:round;stroke-linejoin:round;stroke-miterlimit:3;stroke-dasharray:none;stroke-opacity:.682172;paint-order:markers stroke fill"/><path d="M74.791 38.039s-4.316-.594-7.11.17c2.798.9 7.11.075 7.11.075zM77.246 38.046s4.316-.625 7.11.172c-2.798.867-7.11.074-7.11.074z" style="fill:#fff;fill-opacity:1;stroke:#fff;stroke-width:.2;stroke-linecap:round;stroke-linejoin:round;stroke-miterlimit:3;stroke-dasharray:none;stroke-opacity:1;paint-order:markers stroke fill"/><path d="M75.857 52.22c-1.724.005-4.163.437-5.038 1.437-2.437 3.407-.574 12.351-.574 12.351.312 1.25 2.084 1.112 2.21-.044l.441-3.624c1.125-2.938 4.66-2.95 5.878-.044l.398 3.712c.093.969 1.74 1.469 2.21 0 0 0 2.407-9.145-.437-12.426-.906-1-3.364-1.368-5.088-1.363z" style="fill:#0000a0;fill-opacity:1;stroke:none;stroke-width:.2;stroke-linecap:round;stroke-linejoin:round;stroke-miterlimit:3;stroke-dasharray:none;stroke-opacity:1;paint-order:markers stroke fill"/><path d="M71.074 68.36s.812.796.875 1.187c0 0 .283 3.545 0 3.562-.284.018-.875-4.75-.875-4.75z" style="fill:#0000a0;fill-opacity:1;stroke:#0000a0;stroke-width:.2;stroke-linecap:round;stroke-linejoin:round;stroke-miterlimit:3;stroke-dasharray:none;stroke-opacity:1;paint-order:markers stroke fill"/><path d="M80.715 68.244s-.813.797-.875 1.188c0 0-.284 3.545 0 3.562.283.018.875-4.75.875-4.75z" style="display:inline;fill:#0000a0;fill-opacity:1;stroke:#0000a0;stroke-width:.2;stroke-linecap:round;stroke-linejoin:round;stroke-miterlimit:3;stroke-dasharray:none;stroke-opacity:1;paint-order:markers stroke fill"/><path d="M3.39 83c-.109-2.062 1-3.844 1-3.844s.053-.895.188-1.172c.135-.276 12.324-4.33 12.324-4.33l17.52-1.404 30.953-.047 31.717 2.003c-.309-11.756.376-22.614 3.072-27.21l.784-.003c2.704 4.503 3.536 15.258 3.27 27.28l32.157-2.289 30.031-.093 17.882 1.387 12.337 4.19.266 1.313s1.01 1.791.922 3.625l-1.36-2.031-12.088-1.418-18.38.2-29.35 1.81-32.494 2.549c-.5.07-.72.257-.782.539l-1.859 39.68s12.356 1.46 13.403 2.156l.884 1.06v1.614l-14.23.928-.487-.597-.343 3.16-.342-3.116-.508.465-14.275-.774.033-1.668.856-.987c1.326-.641 13.408-2.228 13.408-2.228l-1.945-39.676c-.077-.353-.497-.442-.862-.475L64.543 81.09l-29.322-1.68-18.363-.076-11.999 1.414Z" style="fill:#fff;fill-opacity:1;stroke:#0000a0;stroke-width:2.4;stroke-linecap:round;stroke-linejoin:round;stroke-miterlimit:3;stroke-dasharray:none;stroke-opacity:1;paint-order:markers stroke fill" transform="translate(0 2.75)"/><path d="M99.855 76.615c-.489-.103-.881-.18-1.304-.575-.423-.395-.716-1.812-.716-1.812-.594-9.094.406-18.828.844-20.078.077-.298.739-1.388 1.915-1.384 1.176.004 1.825 1.104 1.913 1.358.344 1.094 1.454 8.47.986 20.126 0 0-.35 1.397-.766 1.79-.415.393-.816.468-1.304.57a4.042 4.042 0 0 1-1.568.005z" style="fill:#0000a0;fill-opacity:1;stroke:none;stroke-width:.4;stroke-linecap:round;stroke-linejoin:round;stroke-miterlimit:3;stroke-dasharray:none;stroke-opacity:1;paint-order:markers stroke fill" transform="translate(0 2.75)"/></g></svg>