<svg xmlns="http://www.w3.org/2000/svg" width="164" height="164"><defs><mask id="c" maskUnits="userSpaceOnUse"><circle cx="82" cy="79.25" r="81.338" style="display:inline;opacity:1;fill:#fff;fill-opacity:1;stroke:#fff;stroke-width:1.32486;stroke-linecap:round;stroke-linejoin:round;stroke-miterlimit:3;stroke-opacity:1;paint-order:markers stroke fill"/></mask></defs><g style="display:inline;opacity:1"><circle cx="82" cy="82" r="82" style="display:inline;opacity:1;fill:#0000a0;fill-opacity:1;stroke:none;stroke-width:1.33565;stroke-linecap:round;stroke-linejoin:round;stroke-miterlimit:3;paint-order:markers stroke fill"/><path d="m32.215 53.324 37.977-1.036s.598-12.39 4.542-13.85c0 0 .5-1.782 1.266-2.532.734.688 1.288 2.484 1.288 2.484 3.535 1.347 4.27 13.851 4.27 13.851l37.88 1.103c2 2.719 2.671 11.515 2.671 11.515l-.406-.515-39.047 3.125c-.687.453-1.406 1.375-1.531 1.953l-3.544 22.616c-.022.265.31.84.31.84l12.75 1.9c.971 3.293-.575 6.585-.575 6.585l-28.395-.088s-1.613-3.05-.619-6.54l12.706-1.923s.409-.564.376-.818l-3.572-22.572c-.14-.531-1.046-1.703-1.578-2L29.97 64.359l-.346.456s.28-8.053 2.592-11.49z" style="opacity:1;fill:#fff;fill-opacity:1;stroke:none;stroke-width:.4;stroke-linecap:round;stroke-linejoin:round;stroke-miterlimit:3;stroke-dasharray:none;stroke-opacity:.682172;paint-order:markers stroke fill"/><path d="M74.791 38.039s-4.316-.594-7.11.17c2.798.9 7.11.075 7.11.075zM77.246 38.046s4.316-.625 7.11.172c-2.798.867-7.11.074-7.11.074z" style="fill:#fff;fill-opacity:1;stroke:#fff;stroke-width:.2;stroke-linecap:round;stroke-linejoin:round;stroke-miterlimit:3;stroke-dasharray:none;stroke-opacity:1;paint-order:markers stroke fill"/><path d="M75.857 52.22c-1.724.005-4.163.437-5.038 1.437-2.437 3.407-.574 12.351-.574 12.351.312 1.25 2.084 1.112 2.21-.044l.441-3.624c1.125-2.938 4.66-2.95 5.878-.044l.398 3.712c.093.969 1.74 1.469 2.21 0 0 0 2.407-9.145-.437-12.426-.906-1-3.364-1.368-5.088-1.363z" style="fill:#0000a0;fill-opacity:1;stroke:none;stroke-width:.2;stroke-linecap:round;stroke-linejoin:round;stroke-miterlimit:3;stroke-dasharray:none;stroke-opacity:1;paint-order:markers stroke fill"/><path d="M71.074 68.36s.812.796.875 1.187c0 0 .283 3.545 0 3.562-.284.018-.875-4.75-.875-4.75z" style="fill:#0000a0;fill-opacity:1;stroke:#0000a0;stroke-width:.2;stroke-linecap:round;stroke-linejoin:round;stroke-miterlimit:3;stroke-dasharray:none;stroke-opacity:1;paint-order:markers stroke fill"/><path d="M80.715 68.244s-.813.797-.875 1.188c0 0-.284 3.545 0 3.562.283.018.875-4.75.875-4.75z" style="display:inline;fill:#0000a0;fill-opacity:1;stroke:#0000a0;stroke-width:.2;stroke-linecap:round;stroke-linejoin:round;stroke-miterlimit:3;stroke-dasharray:none;stroke-opacity:1;paint-order:markers stroke fill"/><g mask="url(#c)" transform="translate(0 2.75)"><path d="M3.39 83c-.109-2.062 1-3.844 1-3.844s.053-.895.188-1.172c.135-.276 12.324-4.33 12.324-4.33l17.52-1.404 30.953-.047 31.717 2.003c-.309-11.756.376-22.614 3.072-27.21l.784-.003c2.704 4.503 3.536 15.258 3.27 27.28l32.157-2.289 30.031-.093 17.882 1.387 12.337 4.19.266 1.313s1.01 1.791.922 3.625l-1.36-2.031-12.088-1.418-18.38.2-29.35 1.81-32.494 2.549c-.5.07-.72.257-.782.539l-1.859 39.68s12.356 1.46 13.403 2.156l.884 1.06v1.614l-14.23.928-.487-.597-.343 3.16-.342-3.116-.508.465-14.275-.774.033-1.668.856-.987c1.326-.641 13.408-2.228 13.408-2.228l-1.945-39.676c-.077-.353-.497-.442-.862-.475L64.543 81.09l-29.322-1.68-18.363-.076-11.999 1.414Z" style="fill:#fff;fill-opacity:1;stroke:#0000a0;stroke-width:2.4;stroke-linecap:round;stroke-linejoin:round;stroke-miterlimit:3;stroke-dasharray:none;stroke-opacity:1;paint-order:markers stroke fill"/><path d="M99.855 76.615c-.489-.103-.881-.18-1.304-.575-.423-.395-.716-1.812-.716-1.812-.594-9.094.406-18.828.844-20.078.077-.298.739-1.388 1.915-1.384 1.176.004 1.825 1.104 1.913 1.358.344 1.094 1.454 8.47.986 20.126 0 0-.35 1.397-.766 1.79-.415.393-.816.468-1.304.57a4.042 4.042 0 0 1-1.568.005z" style="fill:#0000a0;fill-opacity:1;stroke:none;stroke-width:.4;stroke-linecap:round;stroke-linejoin:round;stroke-miterlimit:3;stroke-dasharray:none;stroke-opacity:1;paint-order:markers stroke fill"/></g><g style="display:inline;fill:#fff"><path d="m258.505 1001.2 16.639-4.179c2.149-.541 3.846-.573 5.089-.098 1.243.475 2.055 1.471 2.436 2.989.382 1.518.137 2.778-.734 3.788-.87 1-2.381 1.78-4.53 2.32l-15.636 3.93c-3.487.87-5.944 2.2-7.372 3.97-1.427 1.77-1.81 3.97-1.147 6.61.658 2.62 2.036 4.37 4.134 5.27 2.097.89 4.889.9 8.376.03l15.635-3.93c2.15-.54 3.847-.58 5.09-.1 1.243.47 2.053 1.46 2.429 2.96.382 1.52.137 2.78-.734 3.79-.87 1-2.381 1.78-4.53 2.32l-16.639 4.18c-5.726 1.44-10.55 1.07-14.469-1.12-3.92-2.18-6.547-5.93-7.882-11.24-1.339-5.33-.798-9.88 1.623-13.66 2.421-3.78 6.495-6.39 12.222-7.83zM264.771 1058.7c-1.981 1-3.625 1.4-4.933 1.2-1.309-.19-2.314-.99-3.017-2.39-.703-1.4-.744-2.68-.122-3.85.622-1.16 1.923-2.25 3.904-3.24l25.81-12.98c1.864-.94 3.413-1.32 4.646-1.15 1.233.17 2.176.9 2.829 2.2.418.84.593 1.69.525 2.57-.069.88-.398 1.94-.986 3.17l-12.511 25.43 17.024-8.56c1.98-.99 3.629-1.4 4.945-1.2 1.317.19 2.327.98 3.03 2.38.703 1.4.739 2.68.109 3.86-.631 1.17-1.936 2.25-3.916 3.25l-26.435 13.29c-1.764.89-3.221 1.24-4.371 1.04-1.15-.19-2.051-.93-2.704-2.23-.435-.87-.6-1.8-.494-2.79.106-.99.482-2.15 1.129-3.47l12.262-24.94zM308.288 1081.8l-2.067-2.71c-1.355-1.78-2.078-3.31-2.17-4.6-.092-1.29.433-2.37 1.573-3.24 1.171-.89 2.371-1.12 3.602-.69 1.231.44 2.519 1.53 3.862 3.3l9.773 12.82c1.332 1.75 2.046 3.27 2.142 4.58.096 1.31-.442 2.41-1.612 3.31-1.141.86-2.323 1.08-3.546.64-1.224-.43-2.507-1.54-3.851-3.3l-2.083-2.73-20.667 15.75c-1.763 1.34-3.306 2.04-4.628 2.09-1.322.04-2.458-.56-3.406-1.8-.949-1.24-1.225-2.5-.828-3.76.396-1.26 1.476-2.56 3.239-3.91zM341.516 1105.97c1.591 1.52 2.536 2.91 2.837 4.19.3 1.28-.057 2.45-1.072 3.52-.99 1.03-2.124 1.43-3.401 1.19-1.277-.24-2.718-1.12-4.322-2.65l-5.46-5.21-5.013 5.26 4.712 4.49c1.604 1.53 2.556 2.93 2.857 4.19.3 1.27-.051 2.43-1.054 3.48-1.003 1.05-2.139 1.45-3.41 1.21-1.271-.25-2.708-1.14-4.313-2.67l-4.711-4.49-5.264 5.52 5.662 5.4c1.618 1.54 2.574 2.94 2.867 4.2.294 1.26-.055 2.41-1.044 3.44-1.003 1.06-2.139 1.47-3.41 1.23-1.27-.23-2.714-1.12-4.332-2.66l-7.826-7.46c-1.739-1.66-2.65-3.1-2.731-4.31-.082-1.21.655-2.63 2.211-4.26l19.551-20.5c1.709-1.8 3.229-2.7 4.559-2.72 1.331-.02 2.852.79 4.564 2.42zM344.87 1140.16l-5.569 8.31c-1.235 1.84-2.47 3-3.706 3.47-1.236.47-2.504.27-3.803-.6-1.3-.87-1.966-1.97-1.999-3.29-.033-1.32.568-2.9 1.802-4.74l15.652-23.35c1.38-2.06 2.723-3.21 4.031-3.46 1.308-.24 2.944.3 4.909 1.61l5.988 4.02c4.007 2.68 6.52 5.74 7.54 9.17 1.019 3.43.44 6.77-1.739 10.02-1.618 2.42-3.684 3.95-6.199 4.61-2.515.66-5.179.36-7.992-.9l1.553 10.83c.204 1.37.248 2.55.135 3.53-.114.99-.378 1.8-.793 2.42-.685 1.02-1.608 1.64-2.771 1.87-1.163.23-2.271-.01-3.323-.71-.681-.46-1.194-1.1-1.541-1.94-.347-.84-.593-2.04-.739-3.59zm3.454-5.15 3.551 2.38c1.563 1.05 3.014 1.49 4.352 1.34 1.339-.16 2.454-.9 3.346-2.23.861-1.29 1.109-2.56.746-3.83-.364-1.26-1.311-2.41-2.843-3.43l-3.644-2.45zM378.445 1160.28l8.21-17.39c.947-2 1.998-3.33 3.154-3.99 1.156-.66 2.441-.66 3.856.01 1.398.66 2.214 1.65 2.447 2.97.234 1.31-.123 2.97-1.069 4.98l-9.487 20.08c-1.894 4.01-4.241 6.61-7.043 7.81-2.802 1.2-5.964.97-9.484-.69-2.745-1.3-4.751-2.96-6.017-4.99-1.266-2.03-1.497-3.9-.694-5.6.533-1.13 1.328-1.88 2.386-2.27 1.058-.38 2.16-.31 3.305.23.725.35 1.514 1.09 2.369 2.25.855 1.16 1.552 1.86 2.091 2.12.994.47 1.932.31 2.814-.47.883-.77 1.937-2.46 3.162-5.05zM421.144 1148.75c2.115.59 3.604 1.39 4.466 2.37.863.99 1.094 2.2.694 3.61-.39 1.38-1.206 2.27-2.447 2.65-1.241.39-2.928.28-5.061-.33l-7.26-2.05-1.976 6.99 6.265 1.77c2.133.61 3.628 1.4 4.484 2.37.856.98 1.087 2.17.692 3.57s-1.212 2.28-2.451 2.66c-1.238.37-2.924.26-5.057-.34l-6.265-1.77-2.075 7.34 7.529 2.12c2.151.61 3.65 1.41 4.497 2.38.847.98 1.076 2.15.686 3.53-.395 1.4-1.209 2.29-2.441 2.68-1.232.39-2.924.28-5.075-.33l-10.405-2.94c-2.313-.65-3.788-1.5-4.425-2.53-.638-1.03-.65-2.63-.037-4.8l7.705-27.26c.673-2.39 1.594-3.9 2.762-4.54 1.167-.63 2.889-.63 5.165.01zM457.162 1182.76c-.462 4.05-2.275 7.17-5.439 9.35-3.164 2.18-7.096 3-11.797 2.46-3.609-.41-6.617-1.41-9.023-2.99-2.406-1.59-3.51-3.25-3.312-4.99.142-1.24.668-2.2 1.578-2.86.91-.66 2.059-.92 3.447-.76.685.08 2.08.58 4.186 1.52 2.106.93 3.908 1.48 5.407 1.65 1.296.15 2.424-.12 3.384-.82.961-.7 1.509-1.64 1.644-2.82.146-1.28-.181-2.36-.981-3.23-.8-.88-2.611-1.93-5.434-3.15-4.095-1.75-6.885-3.58-8.372-5.5s-2.063-4.35-1.73-7.27c.429-3.76 2.135-6.68 5.118-8.75 2.984-2.08 6.651-2.87 11-2.38 3.201.37 5.774 1.24 7.717 2.61 1.943 1.38 2.817 2.92 2.623 4.62-.139 1.22-.614 2.14-1.424 2.75-.81.61-1.863.84-3.159.69-.722-.08-1.87-.45-3.445-1.11-1.575-.66-2.778-1.03-3.611-1.13-1.37-.15-2.498.04-3.385.59-.887.54-1.39 1.33-1.508 2.37-.188 1.65 1.449 3.24 4.91 4.78.804.35 1.428.63 1.874.83 3.72 1.74 6.356 3.69 7.908 5.87 1.552 2.17 2.16 4.73 1.824 7.67zM477.334 1188.89c.051 2.22-.293 3.88-1.032 4.97-.739 1.1-1.89 1.67-3.454 1.7-1.565.04-2.741-.47-3.529-1.54-.789-1.06-1.208-2.7-1.259-4.91l-.657-28.55c-.051-2.22.293-3.88 1.031-4.99.739-1.1 1.89-1.68 3.455-1.71 1.564-.04 2.74.48 3.529 1.55.788 1.07 1.208 2.72 1.259 4.93zM500.448 1186.8c.41 2.18.34 3.86-.211 5.07-.551 1.2-1.595 1.95-3.133 2.24-1.537.29-2.781-.03-3.732-.95-.95-.92-1.63-2.47-2.04-4.65l-5.342-28.39c-.386-2.05-.326-3.65.18-4.78.506-1.14 1.473-1.84 2.901-2.11.916-.17 1.786-.11 2.612.2.826.31 1.75.92 2.774 1.83l20.985 19.05-3.524-18.73c-.41-2.18-.34-3.87.209-5.08.549-1.22 1.592-1.97 3.13-2.26 1.538-.29 2.783.03 3.735.96.952.93 1.633 2.49 2.043 4.67l5.471 29.07c.365 1.95.296 3.44-.207 4.49-.504 1.06-1.469 1.72-2.897 1.98-.952.18-1.89.09-2.814-.29-.923-.38-1.933-1.06-3.029-2.05l-20.572-18.67zM559.596 1158.55l-3.005 1.29c-2.054.88-3.703 1.21-4.946.98-1.242-.23-2.153-1.02-2.733-2.37-.58-1.35-.523-2.57.17-3.64.693-1.08 2.059-2.06 4.096-2.93l6.266-2.69c2.123-.91 3.838-1.11 5.144-.62 1.306.49 2.392 1.75 3.258 3.77 2.283 5.32 2.529 10.33.739 15.02-1.79 4.69-5.296 8.15-10.517 10.39-5.256 2.26-10.343 2.26-15.259.01s-8.63-6.31-11.14-12.16c-2.591-6.04-2.943-11.58-1.058-16.62 1.885-5.03 5.713-8.78 11.482-11.26 3.818-1.63 7.404-2.24 10.759-1.81 3.354.42 5.468 1.66 6.342 3.69.455 1.06.495 2.15.121 3.26-.374 1.12-1.049 1.88-2.025 2.3-.633.27-2.306.27-5.019-.01-2.712-.27-5.036 0-6.97.83-2.894 1.25-4.745 3.25-5.554 6.02-.81 2.77-.451 5.93 1.076 9.49 1.548 3.62 3.629 6.13 6.241 7.54 2.612 1.41 5.339 1.51 8.181.29 2.26-.96 3.783-2.42 4.57-4.37.786-1.95.713-4.08-.219-6.4zM576.692 1119.49c1.82-1.23 3.386-1.86 4.699-1.88 1.312-.02 2.38.58 3.205 1.8.804 1.19.953 2.38.448 3.57-.506 1.2-1.676 2.42-3.512 3.66l-6.247 4.23 4.072 6.02 5.391-3.65c1.836-1.24 3.403-1.88 4.702-1.9 1.299-.03 2.356.56 3.171 1.77.814 1.2.966 2.4.455 3.58-.511 1.19-1.684 2.41-3.519 3.65l-5.392 3.65 4.276 6.32 6.479-4.39c1.851-1.25 3.422-1.89 4.714-1.9 1.291-.02 2.339.56 3.143 1.75.814 1.2.973 2.4.475 3.59s-1.673 2.41-3.524 3.67l-8.954 6.06c-1.99 1.34-3.585 1.93-4.785 1.75-1.2-.18-2.431-1.2-3.695-3.06l-15.882-23.47c-1.388-2.05-1.951-3.72-1.686-5.03.265-1.3 1.377-2.62 3.336-3.94zM617.646 1130.91c1.557 1.58 2.443 3.02 2.658 4.32.215 1.31-.234 2.51-1.348 3.61s-2.322 1.53-3.624 1.3c-1.303-.23-2.732-1.14-4.289-2.72l-20.292-20.56c-1.465-1.49-2.306-2.84-2.521-4.07-.216-1.23.193-2.35 1.228-3.37a4.87 4.87 0 0 1 2.28-1.29c.858-.2 1.964-.22 3.32-.04l28.048 4.08-13.384-13.56c-1.557-1.58-2.446-3.02-2.668-4.33-.221-1.32.225-2.52 1.339-3.62 1.113-1.1 2.325-1.53 3.634-1.29 1.309.24 2.742 1.15 4.299 2.73l20.782 21.06c1.387 1.4 2.165 2.68 2.335 3.84.17 1.15-.262 2.24-1.296 3.26a4.873 4.873 0 0 1-2.498 1.32c-.976.21-2.195.21-3.656 0l-27.495-4zM647.799 1074.26l5.834-10.38c-1.386-.65-2.8-.74-4.24-.27-1.441.48-2.541 1.39-3.298 2.73-.749 1.33-.97 2.72-.665 4.15.306 1.43 1.095 2.69 2.369 3.77zm5.194 2.79c1.578.65 3.073.69 4.485.12 1.413-.57 2.598-1.71 3.557-3.42.83-1.48 1.329-3.36 1.494-5.65.166-2.29.367-3.65.605-4.07.52-.92 1.229-1.52 2.126-1.78.897-.27 1.792-.15 2.685.35 1.688.95 2.548 2.99 2.58 6.1.032 3.12-.846 6.27-2.636 9.45-2.182 3.88-5.327 6.38-9.434 7.48-4.107 1.12-8.158.55-12.152-1.7-4.011-2.25-6.645-5.4-7.905-9.43-1.259-4.03-.83-7.93 1.288-11.7 2.045-3.63 5.016-5.97 8.911-7.01 3.895-1.03 7.661-.53 11.298 1.52 1.185.66 1.863 1.4 2.032 2.2.17.8-.174 1.96-1.033 3.49zM672.689 1055.99c-1.327-.55-2.266-1.48-2.818-2.82-.551-1.33-.555-2.66-.012-3.99.536-1.31 1.465-2.24 2.785-2.78 1.321-.55 2.645-.55 3.972-.01 1.345.55 2.294 1.48 2.847 2.78.554 1.31.559 2.62.015 3.95-.557 1.36-1.492 2.32-2.804 2.87-1.312.55-2.64.55-3.985 0zM684.904 1028.1l-33.253 4.12c-.42.06-.863.08-1.328.06-.466-.03-.923-.1-1.374-.22-1.279-.33-2.227-1.05-2.843-2.16-.616-1.1-.749-2.32-.4-3.65.254-.98.756-1.7 1.504-2.17.749-.46 1.894-.78 3.436-.93l24.527-2.45-20.014-13.47c-1.431-.93-2.366-1.81-2.804-2.64-.438-.83-.514-1.79-.226-2.89.354-1.35 1.001-2.316 1.943-2.898.942-.581 2.052-.705 3.332-.37a8.718 8.718 0 0 1 1.515.556c.506.238.985.522 1.438.852l26.502 19.36c1.197.87 1.992 1.73 2.384 2.58.393.86.446 1.83.158 2.93-.269 1.03-.751 1.8-1.445 2.33-.695.52-1.712.87-3.052 1.06zM687.665 1006.88c-1.417-.22-2.547-.92-3.389-2.09-.843-1.17-1.152-2.46-.928-3.88.221-1.398.912-2.515 2.072-3.35 1.16-.835 2.448-1.14 3.865-.916 1.435.227 2.571.911 3.409 2.053.838 1.141 1.145 2.423.92 3.833-.23 1.46-.92 2.6-2.071 3.44-1.15.84-2.443 1.14-3.878.91z" style="fill:#fff" transform="matrix(.33702 0 0 .33702 -75.553 -243.752)"/><path d="M639.654 1436.04c2.604-7.09 5.714-11.98 9.33-14.68 3.615-2.7 7.796-3.17 12.543-1.43 4.627 1.7 7.436 4.73 8.428 9.08.992 4.36.175 10.11-2.451 17.26l-8.939 24.33 23.434 8.61 7.713-21c2.627-7.15 5.727-12.06 9.301-14.74 3.575-2.68 7.705-3.15 12.392-1.43 4.687 1.72 7.511 4.75 8.473 9.09.962 4.35.13 10.09-2.496 17.24l-7.714 21 32.717 12.02c7.15 2.63 12.015 5.81 14.595 9.56 2.58 3.74 2.943 8.14 1.09 13.18-1.854 5.05-4.976 8.17-9.366 9.35-4.39 1.18-10.16.46-17.31-2.17l-90.67-33.3c-7.991-2.94-12.926-6.49-14.805-10.66-1.879-4.16-1.417-10.06 1.386-17.69zM680.302 1392.66c-6.681-3.66-11.034-7.54-13.059-11.64-2.024-4.1-1.745-8.51.837-13.22 2.582-4.72 6.145-7.33 10.69-7.83 4.545-.51 10.158 1.07 16.84 4.73l78.495 42.97 12.91-23.58c3.688-6.74 7.491-11.15 11.407-13.24 3.917-2.09 8.037-1.95 12.36.42 4.38 2.39 6.745 5.8 7.096 10.23.35 4.42-1.318 10-5.007 16.74l-17.844 32.6c-3.965 7.24-7.92 11.53-11.866 12.87-3.946 1.35-9.316.16-16.11-3.56zM778.028 1336.22l-46.404-36.37c-5.996-4.7-9.658-9.23-10.987-13.61-1.328-4.37-.335-8.68 2.982-12.91 3.316-4.23 7.258-6.23 11.824-5.98 4.566.24 9.847 2.71 15.843 7.41l43.608 34.17c9.724 7.62 18.493 11.51 26.308 11.65 7.814.15 14.603-3.46 20.368-10.81 5.725-7.31 7.592-14.75 5.601-22.33-1.991-7.57-7.848-15.17-17.573-22.79l-43.607-34.18c-5.996-4.69-9.658-9.23-10.987-13.61-1.329-4.37-.354-8.65 2.923-12.83 3.316-4.23 7.257-6.23 11.824-5.98 4.566.24 9.847 2.71 15.843 7.41l46.404 36.36c15.972 12.52 25.121 26.4 27.449 41.64 2.328 15.24-2.312 30.27-13.919 45.08-11.648 14.86-25.15 22.99-40.507 24.37-15.357 1.39-31.021-4.18-46.993-16.69zM951.996 1162.03l-8.695 7.11c-5.946 4.87-11.079 7.51-15.398 7.95-4.319.43-8.08-1.31-11.281-5.23-3.202-3.91-4.171-7.98-2.907-12.2 1.264-4.21 4.845-8.73 10.741-13.56l18.134-14.83c6.144-5.02 11.608-7.34 16.391-6.95 4.783.38 9.565 3.5 14.347 9.35 12.604 15.41 18.182 31.71 16.734 48.89-1.449 17.19-9.729 31.96-24.841 44.32-15.212 12.44-32.005 17.29-50.38 14.54s-34.493-12.6-48.353-29.54c-14.306-17.5-20.741-35.45-19.306-53.86 1.435-18.42 10.502-34.46 27.199-48.11 11.05-9.04 22.316-14.45 33.798-16.24 11.483-1.78 19.636.28 24.458 6.17 2.513 3.07 3.681 6.62 3.505 10.66-.176 4.03-1.677 7.2-4.501 9.51-1.833 1.5-7.36 3.08-16.579 4.75-9.22 1.67-16.629 4.8-22.228 9.37-8.373 6.85-12.579 15.23-12.617 25.15-.037 9.91 4.159 20.02 12.588 30.33 8.551 10.45 17.812 16.77 27.783 18.95 9.972 2.18 19.07-.09 27.295-6.82 6.54-5.35 10.181-11.61 10.923-18.8.742-7.18-1.528-14.15-6.81-20.91zM1088.14 1093.7c6.64 12.34 7.63 24.69 2.97 37.05-4.66 12.35-14.15 22.37-28.47 30.07-10.99 5.92-21.44 8.99-31.34 9.23-9.9.23-16.28-2.3-19.13-7.6-2.03-3.78-2.41-7.5-1.15-11.16 1.27-3.66 4.02-6.62 8.25-8.9 2.08-1.12 7.01-2.43 14.79-3.92 7.77-1.49 13.94-3.46 18.51-5.91 3.95-2.13 6.59-5.11 7.94-8.96 1.34-3.85 1.05-7.58-.89-11.19-2.09-3.89-5.13-6.29-9.11-7.2-3.98-.91-11.15-.33-21.51 1.75-14.97 3.11-26.44 3.41-34.407.9-7.965-2.52-14.342-8.23-19.131-17.14-6.154-11.44-7.056-23.02-2.707-34.73 4.35-11.72 13.149-21.13 26.398-28.26 9.757-5.24 18.717-7.83 26.897-7.76 8.18.08 13.66 2.71 16.45 7.89 2 3.72 2.46 7.24 1.37 10.55-1.09 3.31-3.61 6.03-7.56 8.15-2.2 1.18-6.16 2.39-11.9 3.62-5.73 1.23-9.87 2.53-12.4 3.89-4.18 2.24-6.98 5-8.41 8.28-1.44 3.28-1.31 6.5.39 9.66 2.7 5.02 10.44 6.3 23.23 3.86 2.96-.57 5.26-1.01 6.92-1.32 13.9-2.39 25.17-2.04 33.81 1.06 8.65 3.09 15.38 9.12 20.19 18.09zM1146.91 1096c2.34 7.25 2.83 13.04 1.47 17.38s-4.6 7.33-9.72 8.98c-5.11 1.65-9.49 1.12-13.13-1.61-3.63-2.73-6.62-7.72-8.96-14.97l-29.64-91.93c-2.61-8.11-2.85-14.182-.73-18.23 2.13-4.048 7.06-7.319 14.8-9.813l27.32-8.81c15.05-4.851 28.24-4.614 39.57.71 11.34 5.325 19.24 14.932 23.72 28.823 4.56 14.13 4.04 26.51-1.55 37.12-5.59 10.61-15.64 18.26-30.14 22.93l-20.37 6.57zm-16.23-50.36 13.07-4.21c6.88-2.22 11.58-5.36 14.1-9.44 2.52-4.07 2.84-9.03.96-14.88-1.91-5.91-5.01-9.74-9.3-11.48-4.3-1.75-9.98-1.48-17.05.8l-13.07 4.21zM1255.94 1017.76c1.43 12.98 5.67 23.03 12.7 30.14 7.03 7.11 15.64 10.11 25.82 8.98 10.18-1.12 17.92-5.92 23.23-14.4 5.31-8.47 7.25-19.2 5.82-32.18-1.48-13.426-5.72-23.746-12.7-30.961-6.97-7.214-15.62-10.252-25.93-9.114-10.3 1.139-18.07 5.99-23.31 14.555-5.24 8.564-7.11 19.56-5.63 32.98zm-34.5 3.43c-2.42-21.953 1.9-40.383 12.98-55.291 11.07-14.908 26.78-23.487 47.14-25.736 20.43-2.256 37.69 2.696 51.78 14.856 14.09 12.16 22.35 29.184 24.77 51.071 2.43 22.01-1.89 40.46-12.97 55.33-11.07 14.88-26.85 23.45-47.34 25.71-20.49 2.27-37.73-2.65-51.72-14.76-13.99-12.11-22.2-29.17-24.64-51.18zM1420.52 1025.54l-3.44 34.21c-.76 7.57-2.63 13.08-5.61 16.51-2.98 3.43-7.15 4.88-12.5 4.34-5.35-.53-9.15-2.78-11.39-6.74-2.24-3.96-2.98-9.72-2.21-17.3l9.65-96.111c.86-8.471 3.07-14.135 6.63-16.993 3.57-2.858 9.4-3.881 17.49-3.068l24.65 2.477c16.49 1.657 29.06 6.861 37.7 15.61 8.65 8.75 12.3 19.812 10.95 33.187-1 9.938-4.78 17.938-11.34 23.998-6.56 6.06-15.12 9.47-25.68 10.21l22.24 30.31c2.83 3.83 4.88 7.33 6.13 10.51 1.26 3.18 1.76 6.05 1.5 8.6-.42 4.2-2.21 7.59-5.36 10.17-3.16 2.58-6.9 3.65-11.23 3.21-2.8-.28-5.41-1.41-7.81-3.39-2.41-1.98-5.09-5.21-8.05-9.69zm2.13-21.2 14.62 1.46c6.43.65 11.55-.35 15.35-2.99 3.81-2.64 5.99-6.7 6.53-12.177.54-5.286-.77-9.551-3.92-12.795-3.15-3.243-7.87-5.182-14.18-5.816l-15-1.507zM1544.19 989.403l-11.33-2.966c-7.43-1.945-12.64-4.563-15.61-7.857-2.98-3.293-3.84-7.323-2.6-12.092 1.28-4.892 4.05-8.056 8.29-9.492 4.25-1.436 10.06-1.19 17.43.739l53.6 14.026c7.3 1.912 12.47 4.539 15.5 7.879 3.03 3.34 3.91 7.457 2.63 12.349-1.25 4.768-4 7.855-8.23 9.261-4.24 1.4-10.05 1.14-17.42-.79l-11.42-2.986-22.61 86.386c-1.93 7.37-4.63 12.52-8.11 15.44-3.48 2.93-7.82 3.72-13.02 2.35-5.2-1.36-8.6-4.17-10.2-8.42-1.6-4.26-1.44-10.07.49-17.44zM1620.11 1119.98l4.63-115.06c.03-1.46.21-2.97.56-4.53.34-1.567.84-3.079 1.49-4.54 1.85-4.151 4.83-6.961 8.91-8.431 4.1-1.47 8.3-1.241 12.63.689 3.16 1.408 5.32 3.512 6.49 6.311 1.17 2.8 1.58 6.861 1.25 12.171l-5.43 84.53 56.87-60.32c3.96-4.33 7.47-7.01 10.52-8.03 3.05-1.02 6.36-.74 9.92.85 4.39 1.96 7.3 4.69 8.75 8.21 1.44 3.52 1.24 7.35-.61 11.5-.73 1.64-1.64 3.25-2.73 4.83-1.1 1.58-2.33 3.05-3.7 4.4l-80.46 79.03c-3.62 3.56-6.99 5.78-10.1 6.63-3.12.86-6.46.49-10.02-1.1-3.34-1.49-5.69-3.56-7.07-6.2-1.38-2.65-2.01-6.3-1.9-10.94zM1812.91 1077.35c6.3 4.15 10.36 8.29 12.16 12.43 1.8 4.13 1.31 8.31-1.48 12.54-2.71 4.11-6.29 6.16-10.76 6.13-4.46-.03-9.88-2.14-16.24-6.33l-21.65-14.25-13.73 20.85 18.68 12.3c6.37 4.19 10.44 8.33 12.23 12.42 1.79 4.09 1.31 8.22-1.43 12.39-2.75 4.17-6.35 6.23-10.79 6.18-4.45-.06-9.86-2.18-16.22-6.37l-18.68-12.3-14.42 21.89 22.46 14.78c6.41 4.23 10.5 8.38 12.26 12.45 1.77 4.07 1.29 8.17-1.42 12.29-2.74 4.17-6.34 6.25-10.77 6.24-4.44-.01-9.87-2.13-16.29-6.36l-31.03-20.43c-6.9-4.54-10.85-8.83-11.87-12.88-1.02-4.04.6-9.29 4.86-15.76l53.55-81.32c4.68-7.11 9.26-11.1 13.75-11.98 4.49-.88 10.12.92 16.91 5.39zM1830.61 1198.29l-23.43 25.16c-5.19 5.57-10.01 8.82-14.46 9.75-4.45.93-8.64-.44-12.58-4.1-3.93-3.66-5.59-7.75-4.99-12.25.61-4.51 3.51-9.55 8.7-15.12l65.82-70.7c5.8-6.23 10.99-9.41 15.56-9.53 4.57-.12 9.83 2.6 15.78 8.13l18.13 16.88c12.13 11.3 19 23.05 20.59 35.24 1.59 12.2-2.2 23.21-11.36 33.05-6.8 7.31-14.65 11.39-23.54 12.26-8.89.86-17.77-1.61-26.62-7.41l-.63 37.59c-.06 4.76-.55 8.79-1.47 12.08-.93 3.3-2.26 5.88-4 7.75-2.88 3.09-6.36 4.71-10.43 4.86-4.07.15-7.7-1.27-10.88-4.23-2.06-1.92-3.46-4.39-4.18-7.43-.72-3.03-.9-7.22-.55-12.58zm14.52-15.6 10.75 10.01c4.74 4.4 9.41 6.7 14.04 6.9 4.63.2 8.82-1.72 12.57-5.75 3.62-3.89 5.16-8.08 4.61-12.56-.54-4.49-3.14-8.89-7.77-13.21l-11.04-10.27zM1999.63 1258.44c4.61 5.99 7.09 11.23 7.44 15.72.36 4.5-1.47 8.29-5.48 11.38-3.9 3.01-7.96 3.77-12.17 2.29s-8.64-5.24-13.29-11.28l-15.82-20.53-19.78 15.23 13.65 17.73c4.65 6.03 7.16 11.27 7.51 15.72.36 4.45-1.43 8.2-5.39 11.25-3.95 3.05-8.03 3.82-12.21 2.32-4.19-1.5-8.61-5.27-13.26-11.31l-13.65-17.72-20.77 16 16.41 21.3c4.69 6.08 7.2 11.34 7.54 15.76.34 4.43-1.44 8.15-5.34 11.15-3.96 3.05-8.03 3.85-12.23 2.39-4.19-1.46-8.63-5.23-13.32-11.31l-22.68-29.44c-5.04-6.54-7.38-11.89-7.02-16.04.35-4.15 3.6-8.59 9.74-13.32l77.12-59.42c6.75-5.19 12.38-7.48 16.91-6.84 4.53.63 9.27 4.16 14.23 10.61zM1946.26 1394.26c-6.53 3.92-12.06 5.72-16.6 5.38-4.53-.33-8.18-2.8-10.96-7.41-2.77-4.61-3.24-8.99-1.41-13.15 1.83-4.17 6-8.21 12.53-12.14l84.08-50.59c6.53-3.93 12.07-5.73 16.63-5.42 4.57.32 8.23 2.79 11.01 7.39 2.77 4.61 3.23 9 1.37 13.18-1.85 4.18-6.05 8.24-12.57 12.16zM1973.96 1447.46c-7.07 2.85-12.81 3.74-17.24 2.7-4.42-1.05-7.64-4.07-9.65-9.06-2-4.98-1.78-9.39.69-13.21 2.46-3.82 7.23-7.15 14.29-10l92.1-37.08c6.65-2.68 12.06-3.55 16.24-2.61 4.17.95 7.19 3.73 9.05 8.37 1.2 2.96 1.55 5.94 1.07 8.93-.49 3-1.92 6.52-4.29 10.58l-50.1 83.52 60.74-24.46c7.07-2.84 12.83-3.75 17.28-2.71 4.46 1.03 7.69 4.05 9.69 9.03 2.01 4.99 1.77 9.4-.72 13.24-2.5 3.83-7.28 7.17-14.34 10.01l-94.33 37.98c-6.29 2.54-11.38 3.31-15.26 2.32-3.89-.99-6.76-3.8-8.62-8.43-1.25-3.09-1.55-6.32-.9-9.68.65-3.37 2.27-7.23 4.86-11.59l49.11-81.88z" style="fill:#fff" transform="translate(-52.234 -86.903)scale(.09807)"/></g></g></svg>